<?xml version="1.0" ?><svg viewBox="0 0 32 32" xmlns="http://www.w3.org/2000/svg"><title/><g data-name="Layer 2" id="Layer_2"><path d="M28.41,12.28a.52.52,0,0,0-.41-.21H25.07V10a.51.51,0,0,0-.5-.5H21.64V6.57a.5.5,0,0,0-.5-.5H14.29a.5.5,0,0,0-.5.5V9.5H10.86a.5.5,0,0,0-.5.5v2.07h-2L7.06,5.62a.47.47,0,0,0-.21-.32L4.28,3.58a.5.5,0,0,0-.56.84L6.12,6,9.51,23a.5.5,0,0,0,.49.4H24.57a.51.51,0,0,0,.48-.34l3.42-10.29A.48.48,0,0,0,28.41,12.28Zm-4.34-.21H18.21V10.5h5.86Zm-9.28-5h5.85V9.5H14.79ZM11.36,10.5h5.85v1.57H11.36ZM24.21,22.36H10.41L8.55,13.07H27.31Z"/><path d="M22,24.07a2.22,2.22,0,0,0-2.15,1.72H14.72a2.21,2.21,0,1,0,0,1h5.13A2.21,2.21,0,1,0,22,24.07ZM12.57,27.5a1.22,1.22,0,0,1,0-2.43,1.22,1.22,0,1,1,0,2.43Zm9.43,0a1.22,1.22,0,1,1,1.21-1.21A1.21,1.21,0,0,1,22,27.5Z"/><path d="M11.71,14.64a.51.51,0,0,0-.5.5.5.5,0,0,0,.5.5h12a.5.5,0,0,0,.5-.5.5.5,0,0,0-.5-.5Z"/><path d="M22.15,17.25l-8.72,0h0a.5.5,0,0,0-.5.5.5.5,0,0,0,.5.5l8.71,0h0a.5.5,0,0,0,0-1Z"/><path d="M20.29,19.79H15.14a.5.5,0,0,0-.5.5.51.51,0,0,0,.5.5h5.15a.51.51,0,0,0,.5-.5A.5.5,0,0,0,20.29,19.79Z"/></g></svg>