<svg width="297" height="378" viewBox="0 0 297 378" fill="none" xmlns="http://www.w3.org/2000/svg">
<g clip-path="url(#clip0)">
<path d="M228.767 8.78639H0V347.16H228.767V8.78639Z" fill="#535461"/>
<path d="M166.423 355.916L0 347.161V8.78704L166.423 0.0315552V355.916Z" fill="black"/>
<path d="M152.511 196.257C153.649 196.257 154.572 195.334 154.572 194.197C154.572 193.059 153.649 192.137 152.511 192.137C151.373 192.137 150.45 193.059 150.45 194.197C150.45 195.334 151.373 196.257 152.511 196.257Z" fill="#535461"/>
<path d="M152.511 194.506L153.938 196.978L155.371 199.45H152.511H149.652L151.084 196.978L152.511 194.506Z" fill="#535461"/>
<path d="M173.636 355.916L163.445 355.885L163.846 0.030899H173.636V355.916Z" fill="black"/>
<g opacity="0.1">
<path opacity="0.1" d="M173.749 355.885H163.445L163.96 0H173.749V355.885Z" fill="white"/>
</g>
<path opacity="0.1" d="M152.511 185.956C156.21 185.956 159.209 182.959 159.209 179.261C159.209 175.563 156.21 172.565 152.511 172.565C148.812 172.565 145.813 175.563 145.813 179.261C145.813 182.959 148.812 185.956 152.511 185.956Z" fill="black"/>
<path d="M152.511 184.926C156.21 184.926 159.209 181.929 159.209 178.231C159.209 174.533 156.21 171.535 152.511 171.535C148.812 171.535 145.813 174.533 145.813 178.231C145.813 181.929 148.812 184.926 152.511 184.926Z" fill="#535461"/>
<path d="M178.253 101.744V105.431L193.844 95.5944L192.205 93.5343L191.443 93.9824L179.381 76.3169V66.0679L174.79 66.4799V64.8421C162.682 50.9054 161.43 66.4799 163.934 70.9915C166.438 75.5032 171.019 78.7994 171.019 78.7994C173.595 80.947 178.036 97.1704 179.123 101.239L178.253 101.744Z" fill="url(#paint0_linear)"/>
<path d="M279.405 93.5498L277.277 92.1077H277.184L275.252 86.3703L274.551 86.396L272.15 81.6011C274.219 80.5796 276.094 79.2043 277.689 77.5375C281.44 73.8396 284.861 67.4945 284.016 56.7664C283.841 54.5467 287.504 48.7989 276.54 45.8118C276.214 42.7025 274.929 39.7713 272.863 37.424C270.797 35.0767 268.052 33.4292 265.009 32.7095C260.772 31.6573 256.396 31.275 252.04 31.5764C243.626 32.2923 236.248 38.4726 236.248 46.9139C236.248 46.9139 233.708 47.6968 233.569 56.0248H233.893C232.369 62.1775 233.351 68.6835 236.623 74.1129C239.896 79.5423 245.191 83.4509 251.345 84.9797L251.489 85.8449C251.638 85.9273 251.793 85.9995 251.947 86.0716L253.493 90.0991L248.5 93.0966L238.484 93.4262C233.867 93.5853 229.314 94.56 225.036 96.3052C215.865 99.9876 199.166 103.521 199.166 103.521L193.844 95.9138L178.263 106.647L188.516 122.299C190.155 123.538 191.947 124.559 193.849 125.337H193.895H193.952L194.416 125.523C196.951 126.505 199.576 127.24 202.253 127.717C208.435 128.958 217.71 129.88 229.318 128.134L229.236 128.108L229.524 128.072L233.007 198.631H233.234L231.57 210.714C215.159 231.248 210.646 290.698 210.646 290.698L234.929 360.489C234.47 362.482 232.626 366.788 225.212 369.806C215.273 373.849 232.26 376.779 232.26 376.779L247.717 372.036C248.995 374.611 256.172 378.005 256.172 378.005L286.927 377.186V362.014H286.515C286.515 362.014 289.385 334.552 287.334 328.815C285.283 323.077 287.334 295.204 287.334 295.204L288.973 235.77C294.712 224.295 294.712 214.458 290.204 205.028C288.846 202.163 287.976 199.093 287.628 195.943C288.864 193.033 289.385 188.253 288.143 180.435C284.454 157.187 296.346 133.907 296.346 133.907C297.744 126.263 296.886 118.377 293.878 111.211C290.87 104.045 285.841 97.9084 279.405 93.5498ZM261.062 365.547L257.6 353.129L256.811 353.351L241.808 290.286L255.75 261.186V289.06L263.54 343.575V362.014C263.046 363.392 262.19 364.613 261.062 365.547Z" fill="url(#paint1_linear)"/>
<path d="M181.349 71.5117V81.3745L193.081 98.5558L181.349 106.183C181.349 106.183 176.135 86.0973 173.327 83.7333C173.327 83.7333 168.911 80.5814 166.505 76.25C164.099 71.9186 165.299 56.9518 176.939 70.3426V71.9186L181.349 71.5117Z" fill="#FDA57D"/>
<path d="M274.736 94.9918L270.099 85.7213C269.963 85.4489 269.756 85.2176 269.501 85.0511C269.246 84.8846 268.951 84.7889 268.646 84.7737L251.035 83.8569C250.749 83.8419 250.463 83.8989 250.203 84.0226C249.944 84.1463 249.72 84.3329 249.552 84.5654C249.383 84.7978 249.276 85.0687 249.239 85.3534C249.202 85.638 249.237 85.9274 249.34 86.1952L253.89 97.9533C254.025 98.3011 254.269 98.5956 254.586 98.7926C254.903 98.9895 255.275 99.0781 255.647 99.0451L273.381 97.4691C273.657 97.4393 273.922 97.3432 274.152 97.1891C274.383 97.035 274.573 96.8275 274.706 96.5842C274.839 96.3409 274.911 96.069 274.917 95.7917C274.922 95.5145 274.86 95.2401 274.736 94.9918Z" fill="#FDA57D"/>
<path d="M273.454 91.0055L276.447 99.7868L245.677 98.6846L257.497 91.5927L273.454 91.0055Z" fill="#EDEEF9"/>
<path d="M195.245 99.864L193.668 97.8966L180.272 105.771V109.32L195.245 99.864Z" fill="#EDEEF9"/>
<path d="M285.757 186.991C285.757 186.991 283.506 195.958 287.818 205.017C292.131 214.077 292.152 223.527 286.639 234.554L285.077 291.661C285.077 291.661 283.109 318.442 285.077 323.953C287.046 329.464 284.289 355.854 284.289 355.854H262.226V338.137L254.74 285.758V258.977L241.344 286.938L256.703 351.528L236.609 359.799L211.393 287.334C211.393 287.334 215.726 230.228 231.487 210.538L234.445 189.072L285.757 186.991Z" fill="#7A7478"/>
<path d="M284.686 370.429V355.859H262.226C262.226 355.859 260.65 361.766 250.407 362.946C240.164 364.125 255.157 371.217 255.157 371.217L284.686 370.429Z" fill="#333333"/>
<path d="M260.428 361.359L256.517 347.32L234.877 353.34C234.877 353.34 234.944 359.454 225.392 363.337C215.839 367.22 232.167 370.033 232.167 370.033L260.428 361.359Z" fill="#333333"/>
<path opacity="0.1" d="M234.45 190.252L285.757 188.191C285.124 191.249 284.993 194.389 285.371 197.488C283.022 203.009 277.988 201.495 277.988 201.495L233.095 200.114L234.45 190.252Z" fill="black"/>
<path d="M275.427 96.5163L277.488 97.9018C283.676 102.091 288.51 107.99 291.4 114.88C294.291 121.769 295.112 129.351 293.764 136.699C293.764 136.699 282.336 159.046 285.886 181.393C289.436 203.74 278.008 200.3 278.008 200.3L232.894 198.914L229.545 131.111C229.545 131.111 202.361 134.979 190.144 125.523L180.293 110.484L195.266 100.183L200.387 107.486C200.387 107.486 216.432 104.098 225.243 100.528C229.349 98.8498 233.72 97.91 238.154 97.7524L275.427 96.5163Z" fill="#252A62"/>
<path opacity="0.1" d="M275.03 205.61C275.03 205.61 277.787 219.392 262.031 242.239L275.03 205.61Z" fill="black"/>
<path opacity="0.1" d="M229.328 131.178C229.328 131.178 210.419 124.879 202.144 124.879C193.869 124.879 195.25 128.453 195.25 128.453C195.25 128.453 208.446 134.325 229.328 131.178Z" fill="black"/>
<path opacity="0.1" d="M250.773 84.6449L258.3 85.5462C258.537 85.5771 258.754 85.8759 258.882 86.3394C257.228 89.3214 255.157 91.1034 252.911 91.1034C252.108 91.0933 251.321 90.875 250.628 90.4699L250.051 86.9883C249.855 85.8243 250.242 84.5831 250.773 84.6449Z" fill="black"/>
<path d="M256.023 90.3103C268.714 90.3103 279.003 80.0261 279.003 67.34C279.003 54.6538 268.714 44.3697 256.023 44.3697C243.332 44.3697 233.043 54.6538 233.043 67.34C233.043 80.0261 243.332 90.3103 256.023 90.3103Z" fill="#FDA57D"/>
<path opacity="0.1" d="M236.48 54.3355L237.639 55.3965C238.132 55.8472 238.503 56.4149 238.718 57.0471C238.933 57.6792 238.986 58.3555 238.87 59.0131C238.755 59.6708 238.475 60.2888 238.057 60.8098C237.639 61.3308 237.097 61.7381 236.48 61.994C236.48 61.994 246.785 72.2945 248.207 74.195C249.629 76.0955 247.97 81.1324 247.97 81.1324C247.97 81.1324 243.42 89.5068 267.358 87.5909C267.358 87.5909 283.155 84.2432 281.481 62.9468C281.311 60.8146 284.83 55.2883 274.298 52.4196C273.986 49.4316 272.752 46.6146 270.767 44.3586C268.783 42.1025 266.145 40.519 263.221 39.8272C259.15 38.8156 254.947 38.4472 250.762 38.7353C246.86 39.0758 243.227 40.8674 240.583 43.756C237.938 46.6446 236.474 50.4199 236.48 54.3355Z" fill="black"/>
<path d="M235.98 53.0788C235.98 53.0788 233.543 53.8308 233.404 61.8343L236.871 61.5974C236.871 61.5974 244.899 83.0587 244.054 80.262C240.962 69.9615 247.145 71.8877 248.603 73.8036C250.062 75.7195 248.366 80.741 248.366 80.741C248.366 80.741 243.822 89.0999 267.755 87.1995C267.755 87.1995 283.552 83.8518 281.878 62.5554C281.708 60.4232 285.227 54.8969 274.695 52.0282C274.383 49.0402 273.149 46.2232 271.164 43.9671C269.179 41.7111 266.542 40.1275 263.617 39.4357C259.547 38.4242 255.343 38.0558 251.159 38.3439C243.07 39.034 235.98 44.9671 235.98 53.0788Z" fill="#72351C"/>
<path opacity="0.1" d="M27.2151 8.29712V348.757" stroke="black" stroke-width="2" stroke-miterlimit="10"/>
<path opacity="0.1" d="M56.5837 6.237V349.787" stroke="black" stroke-width="2" stroke-miterlimit="10"/>
<path opacity="0.1" d="M85.9524 4.69191V351.764" stroke="black" stroke-width="2" stroke-miterlimit="10"/>
<path opacity="0.1" d="M115.321 3.14682V353.907" stroke="black" stroke-width="2" stroke-miterlimit="10"/>
<path opacity="0.1" d="M144.69 1.60175V354.34" stroke="black" stroke-width="2" stroke-miterlimit="10"/>
</g>
<defs>
<linearGradient id="paint0_linear" x1="178.345" y1="105.431" x2="178.345" y2="59.1819" gradientUnits="userSpaceOnUse">
<stop stop-color="#808080" stop-opacity="0.25"/>
<stop offset="0.54" stop-color="#808080" stop-opacity="0.12"/>
<stop offset="1" stop-color="#808080" stop-opacity="0.1"/>
</linearGradient>
<linearGradient id="paint1_linear" x1="91958.6" y1="283125" x2="91958.6" y2="49952.4" gradientUnits="userSpaceOnUse">
<stop stop-color="#808080" stop-opacity="0.25"/>
<stop offset="0.54" stop-color="#808080" stop-opacity="0.12"/>
<stop offset="1" stop-color="#808080" stop-opacity="0.1"/>
</linearGradient>
<clipPath id="clip0">
<rect width="297" height="378" fill="white"/>
</clipPath>
</defs>
</svg>
